# Blender v2.78 (sub 0) OBJ File: ''
# www.blender.org
v -0.006917 0.095800 -0.037929
v 0.020400 0.132591 -0.026099
v 0.038269 0.097208 -0.009010
v -0.051132 0.107015 -0.011769
v 0.002516 0.131179 -0.029764
v 0.000817 0.162422 0.042511
v 0.018881 0.112551 0.047667
v 0.030491 0.140186 -0.004888
v -0.033230 0.154955 -0.014801
v -0.033356 0.156784 0.035032
v -0.037099 0.117502 0.032318
v 0.027893 0.063787 -0.013275
v -0.012304 0.062914 -0.037944
v 0.007688 0.024634 0.040034
v -0.039155 0.028389 -0.006493
v -0.033341 0.022724 0.033389
v 0.002426 0.171775 0.024067
v -0.030416 0.168343 0.018373
v -0.037142 -0.035120 -0.012710
v -0.016158 0.030608 -0.031363
v -0.021732 -0.034936 -0.040298
v -0.029817 -0.002017 0.031335
v -0.000775 -0.015349 0.044231
v 0.011874 0.025430 -0.007640
v 0.012883 -0.029709 -0.014485
v -0.035441 -0.019286 0.034282
v 0.070693 -0.172838 -0.047105
v 0.090256 -0.146766 -0.039900
v 0.059785 -0.153603 -0.036913
v 0.088163 -0.183320 -0.072549
v 0.096283 -0.177613 -0.051941
v 0.078319 -0.185286 -0.066889
v 0.058807 -0.162720 -0.070823
v 0.074281 -0.154021 -0.075932
v 0.094242 -0.145206 -0.056411
v 0.074946 -0.096226 -0.039831
v 0.075713 -0.095288 -0.057895
v 0.054900 -0.104252 -0.077560
v 0.037520 -0.124641 -0.074643
v 0.022374 -0.115120 -0.070257
v -0.056846 -0.171025 -0.038893
v -0.030195 -0.168588 -0.064444
v -0.049155 -0.188710 -0.039494
v -0.054777 -0.142313 -0.022997
v -0.039329 -0.103551 -0.050789
v 0.004732 -0.147445 -0.042377
v -0.001439 -0.170835 -0.051491
v -0.043662 -0.152172 0.074408
v -0.013796 -0.151408 0.073001
v -0.017804 -0.085253 0.070481
v -0.013826 -0.177252 -0.014219
v -0.010597 -0.098459 0.026031
v -0.011435 -0.170972 0.027571
v -0.062371 -0.141208 0.023749
v -0.072443 -0.167140 0.003214
v 0.029179 -0.130320 -0.046343
v 0.056038 -0.112493 -0.023643
v 0.100764 -0.178144 -0.062908
v 0.021954 -0.043172 0.011176
v -0.007461 -0.035350 0.061383
v -0.042114 -0.037582 0.047468
v 0.042190 -0.057542 -0.021525
v -0.044781 -0.180725 -0.018796
v -0.059504 -0.184323 0.005824
v -0.059522 -0.148624 0.046827
v -0.048009 -0.171460 0.030498
v -0.060043 -0.168006 0.051463
v -0.010901 -0.115853 -0.059979
v 0.029144 -0.108524 -0.003899
v -0.048127 -0.082929 0.061672
v -0.054825 -0.097200 -0.002826
v 0.006971 -0.056219 -0.062810
v 0.046767 -0.071952 -0.055715
v 0.023860 -0.085617 -0.068012
v 0.061119 -0.079471 -0.024112
v 0.032169 -0.040339 -0.051957
v -0.049183 -0.226093 0.013354
v -0.009677 -0.244499 0.041817
v -0.030525 -0.209882 0.037534
v 0.025690 -0.255776 0.034637
v 0.021631 -0.274213 0.026148
v 0.027453 -0.259062 0.012958
v 0.007819 -0.232202 0.018974
v -0.023281 -0.259347 0.020860
v -0.005692 -0.251482 -0.000866
v -0.007529 -0.205047 0.012937
v -0.026850 -0.217584 -0.009611
v 0.012292 -0.236262 -0.026381
v 0.024894 -0.270541 -0.009918
v 0.028467 -0.271583 -0.032348
v 0.020619 -0.288942 -0.018926
v -0.006163 -0.251678 -0.006221
v -0.014394 -0.271383 -0.025404
v 0.001210 -0.258124 -0.046883
v -0.015907 -0.220134 -0.055450
v 0.001591 -0.212268 -0.029986
v -0.040055 -0.226884 -0.036319
v -0.025992 -0.215769 -0.012480
v -0.026271 -0.204958 0.037492
v -0.046933 -0.209657 0.062202
v -0.009111 -0.224093 0.089147
v -0.026077 -0.192460 0.084000
v 0.015614 -0.236968 0.081727
v 0.010718 -0.254075 0.075113
v 0.017610 -0.241604 0.061877
v 0.004955 -0.212808 0.065873
v -0.020913 -0.241799 0.069824
v -0.006480 -0.233515 0.047230
v -0.004686 -0.194869 0.059283
v 0.034179 0.097378 -0.009777
v 0.018265 0.072916 0.071175
v 0.016689 0.110338 0.044903
v -0.045562 0.072453 0.065618
v -0.034657 0.115090 0.029959
v -0.047013 0.106490 -0.012089
v -0.035044 0.029031 -0.006315
v 0.023953 0.065072 -0.013690
v -0.025365 0.016906 0.053284
v 0.009244 0.024605 0.061306
v -0.001731 -0.013102 0.040857
v 0.009306 -0.027960 -0.015706
v -0.031905 -0.018699 0.032161
v -0.025935 -0.003294 0.032111
v 0.038269 0.097208 -0.009010
v 0.018881 0.112551 0.047667
v 0.021662 0.073924 0.073363
v -0.049085 0.073943 0.067265
v -0.037099 0.117502 0.032318
v -0.051132 0.107015 -0.011769
v -0.039155 0.028389 -0.006493
v 0.027893 0.063787 -0.013275
v -0.027806 0.015642 0.056412
v -0.000775 -0.015349 0.044231
v 0.011150 0.022420 0.064296
v 0.012883 -0.029709 -0.014485
v -0.035441 -0.019286 0.034282
v -0.029817 -0.002017 0.031335
vt 0.4940 0.1271
vt 0.4745 0.1626
vt 0.4501 0.1327
vt 0.5312 0.1295
vt 0.4938 0.1592
vt 0.5868 0.1612
vt 0.5975 0.1316
vt 0.6342 0.1542
vt 0.5335 0.1694
vt 0.5670 0.1601
vt 0.5619 0.1337
vt 0.4550 0.1033
vt 0.4935 0.1008
vt 0.6350 0.0987
vt 0.6342 0.1223
vt 0.5918 0.0734
vt 0.5304 0.0735
vt 0.5615 0.0699
vt 0.4501 0.2099
vt 0.4501 0.1676
vt 0.4779 0.2091
vt 0.4999 0.2039
vt 0.5623 0.1712
vt 0.5938 0.1730
vt 0.5305 0.0223
vt 0.5019 0.0741
vt 0.5061 0.0191
vt 0.5628 0.0507
vt 0.5867 0.0441
vt 0.6256 0.0699
vt 0.4723 0.0254
vt 0.4708 0.0699
vt 0.6275 0.0354
vt 0.5644 0.0371
vt 0.3423 0.3515
vt 0.3575 0.3837
vt 0.3423 0.3840
vt 0.3780 0.3516
vt 0.3665 0.3436
vt 0.3809 0.3443
vt 0.4024 0.3515
vt 0.3883 0.3831
vt 0.3844 0.3515
vt 0.3794 0.3790
vt 0.3754 0.3319
vt 0.3616 0.3515
vt 0.3655 0.3788
vt 0.3606 0.4035
vt 0.3676 0.4014
vt 0.3789 0.4007
vt 0.3888 0.3973
vt 0.3918 0.4052
vt 0.0430 0.5447
vt 0.0281 0.5498
vt 0.0395 0.5376
vt 0.0525 0.5553
vt 0.0426 0.5766
vt 0.0131 0.5639
vt 0.0143 0.5525
vt 0.0986 0.5412
vt 0.1128 0.5410
vt 0.1129 0.5720
vt 0.1529 0.5293
vt 0.1352 0.5668
vt 0.1339 0.5325
vt 0.0739 0.5511
vt 0.0630 0.5429
vt 0.4024 0.3982
vt 0.4024 0.3828
vt 0.3473 0.4031
vt 0.3684 0.3515
vt 0.3328 0.3955
vt 0.1468 0.5980
vt 0.1216 0.6091
vt 0.1166 0.5959
vt 0.0678 0.6091
vt 0.0514 0.6091
vt 0.0986 0.5960
vt 0.0972 0.6091
vt 0.1600 0.6092
vt 0.1635 0.5953
vt 0.0499 0.5375
vt 0.0619 0.5350
vt 0.0840 0.5451
vt 0.0744 0.5358
vt 0.0848 0.5356
vt 0.0269 0.5765
vt 0.0056 0.5745
vt 0.1745 0.5551
vt 0.1586 0.5696
vt 0.1674 0.5437
vt 0.0980 0.5736
vt 0.0666 0.5744
vt 0.1683 0.6225
vt 0.1791 0.6119
vt 0.3725 0.4155
vt 0.3845 0.4147
vt 0.1731 0.5719
vt 0.3574 0.4148
vt 0.1707 0.5323
vt 0.1721 0.6021
vt 0.0311 0.6067
vt 0.0173 0.5973
vt 0.1790 0.5940
vt 0.1716 0.5853
vt 0.0124 0.5850
vt 0.0995 0.5058
vt 0.1121 0.4804
vt 0.1120 0.5066
vt 0.1132 0.4518
vt 0.1003 0.4518
vt 0.1076 0.4409
vt 0.1273 0.4518
vt 0.1273 0.4769
vt 0.1001 0.4821
vt 0.0882 0.4790
vt 0.0734 0.4760
vt 0.0875 0.4518
vt 0.0734 0.5295
vt 0.0734 0.5045
vt 0.0871 0.5059
vt 0.1273 0.5044
vt 0.1199 0.5300
vt 0.1273 0.5277
vt 0.0877 0.5318
vt 0.1091 0.5321
vt 0.0993 0.5281
vt 0.0677 0.4836
vt 0.0525 0.4581
vt 0.0634 0.4581
vt 0.0430 0.4581
vt 0.0487 0.4478
vt 0.0538 0.4838
vt 0.0430 0.4810
vt 0.0305 0.4831
vt 0.0314 0.4581
vt 0.0156 0.4827
vt 0.0306 0.5404
vt 0.0156 0.5362
vt 0.0300 0.5070
vt 0.0677 0.5293
vt 0.0591 0.5243
vt 0.0677 0.5084
vt 0.0430 0.5056
vt 0.0533 0.5083
vt 0.0508 0.5271
vt 0.0156 0.5066
vt 0.0430 0.5257
vt 0.1331 0.5215
vt 0.1456 0.5061
vt 0.1476 0.5260
vt 0.1572 0.5068
vt 0.1680 0.4814
vt 0.1682 0.5053
vt 0.1681 0.4578
vt 0.1572 0.4579
vt 0.1614 0.4471
vt 0.1800 0.4578
vt 0.1800 0.4804
vt 0.1572 0.4811
vt 0.1474 0.4817
vt 0.1358 0.4805
vt 0.1489 0.4578
vt 0.1800 0.5004
vt 0.1736 0.5210
vt 0.1800 0.5182
vt 0.1328 0.5004
vt 0.1678 0.5251
vt 0.1572 0.5266
vt 0.3351 0.6562
vt 0.2903 0.6335
vt 0.2924 0.6572
vt 0.2609 0.6335
vt 0.2612 0.6613
vt 0.2384 0.6680
vt 0.2206 0.6335
vt 0.3438 0.6335
vt 0.2844 0.4127
vt 0.3061 0.4244
vt 0.3056 0.3972
vt 0.3365 0.3752
vt 0.2859 0.3870
vt 0.2780 0.3950
vt 0.3351 0.6562
vt 0.2924 0.6572
vt 0.2903 0.6335
vt 0.2609 0.6335
vt 0.2612 0.6613
vt 0.2384 0.6680
vt 0.2206 0.6335
vt 0.3438 0.6335
vt 0.2844 0.4127
vt 0.3056 0.3972
vt 0.3061 0.4244
vt 0.3365 0.3752
vt 0.2859 0.3870
vt 0.2780 0.3950
vt 0.1886 0.6017
vn 0.5373 -0.1310 -0.8332
vn -0.4248 0.3096 -0.8507
vn 0.8591 0.3498 0.3737
vn -0.9370 0.3489 -0.0152
vn -0.2060 -0.0479 0.9774
vn 0.5225 -0.0852 -0.8484
vn 0.8673 -0.3181 0.3828
vn -0.2682 -0.0494 0.9621
vn -0.9896 -0.0377 0.1389
vn -0.6643 -0.1503 -0.7322
vn 0.3989 0.7865 -0.4714
vn 0.4011 0.8371 -0.3719
vn -0.9728 0.2316 -0.0110
vn -0.1677 0.8851 0.4342
vn 0.8335 0.4600 0.3060
vn 0.8548 0.2006 -0.4785
vn 0.0231 0.7919 -0.6103
vn -0.8649 0.1393 -0.4822
vn -0.9812 -0.1499 0.1218
vn -0.1543 -0.1035 0.9826
vn 0.9767 -0.1981 0.0824
vn 0.5910 0.0594 -0.8045
vn -0.7309 -0.0514 -0.6805
vn 0.4995 -0.3265 -0.8024
vn 0.9240 -0.3749 0.0749
vn -0.9552 0.0712 0.2871
vn 0.9476 0.1441 0.2851
vn 0.9734 -0.0106 0.2290
vn -0.9519 0.2990 -0.0663
vn -0.9520 0.2987 -0.0662
vn -0.3345 0.1681 0.9273
vn -0.2933 0.2529 0.9220
vn -0.9783 -0.0507 0.2008
vn 0.1747 -0.3818 0.9076
vn 0.2717 -0.9497 0.1559
vn 0.2767 -0.9486 0.1535
vn 0.2775 -0.9484 0.1533
vn -0.7612 -0.6393 0.1088
vn -0.1476 -0.2923 -0.9449
vn -0.0624 -0.8554 0.5141
vn 0.9657 0.0942 0.2421
vn 0.9354 0.3489 0.0578
vn -0.2394 0.0654 -0.9687
vn -0.6555 -0.2610 -0.7087
vn -0.8644 -0.0159 -0.5026
vn 0.4145 0.2334 -0.8796
vn 0.0460 0.0408 0.9981
vn 0.9984 -0.0127 -0.0552
vn 0.9984 -0.0103 0.0563
vn -0.8743 0.4606 -0.1529
vn -0.1995 -0.2076 -0.9577
vn -0.6325 -0.7432 0.2181
vn 0.6302 0.2211 -0.7443
vn 0.5545 0.1669 0.8153
vn 0.5543 0.1685 -0.8150
vn -0.4864 -0.3082 0.8176
vn 0.8643 0.1282 0.4864
vn -0.8374 0.2860 -0.4658
vn -0.9518 0.2993 -0.0664
vn 0.6988 0.7047 0.1227
vn -0.6753 -0.2516 -0.6934
vn -0.6639 -0.5729 -0.4807
vn -0.8701 -0.0925 -0.4842
vn 0.1513 -0.4229 -0.8934
vn -0.8612 -0.3858 0.3309
vn -0.5689 -0.7577 -0.3197
vn -0.8497 0.1441 0.5072
vn -0.7015 -0.4434 0.5580
vn 0.5719 -0.7296 0.3751
vn -0.9777 0.2020 0.0568
vn -0.2643 0.1579 0.9514
vn -0.3245 0.6281 0.7073
vn -0.6524 0.4025 -0.6421
vn 0.2382 0.8389 -0.4894
vn 0.9879 0.0652 0.1408
vn -0.8643 0.0365 0.5017
vn -0.9843 0.0712 -0.1616
vn 0.4141 0.5792 -0.7022
vn 0.0943 0.5739 -0.8135
vn -0.2455 0.0858 -0.9656
vn -0.9217 0.2107 -0.3257
vn -0.9859 0.1523 0.0687
vn -0.2417 0.3191 0.9164
vn 0.9652 -0.1627 0.2048
vn 0.5770 -0.1228 0.8075
vn 0.8439 -0.0307 0.5357
vn 0.2000 -0.8715 0.4477
vn 0.6940 -0.0966 0.7135
vn 0.6293 0.7743 0.0669
vn -0.2208 0.2025 -0.9541
vn -0.9776 0.1327 0.1633
vn -0.9362 0.1427 -0.3213
vn 0.2603 -0.7565 0.6000
vn 0.9098 -0.3353 0.2447
vn -0.7444 -0.2122 0.6331
vn -0.8793 -0.1806 0.4407
vn -0.2368 0.1677 -0.9570
vn -0.9005 -0.4338 -0.0283
vn 0.9054 -0.2219 0.3618
vn -0.3489 0.8390 -0.4176
vn -0.5524 0.1264 -0.8239
vn 0.6997 0.6956 0.1628
vn -0.2486 0.0285 -0.9682
vn 0.2585 0.2309 -0.9380
vn 0.9037 0.4242 -0.0578
vn 0.3737 0.2162 0.9020
vn 0.5824 -0.0781 0.8091
vn -0.2957 0.0873 -0.9513
vn 0.1577 -0.2903 0.9439
vn -0.1367 -0.8532 -0.5034
vn -0.6459 -0.3023 0.7010
vn 0.9570 -0.2650 0.1180
vn 0.8045 0.5935 -0.0246
vn 0.3486 0.6875 0.6371
vn -0.3025 -0.6740 0.6739
vn 0.4288 0.4843 -0.7626
vn 0.8001 -0.3166 -0.5096
vn 0.5923 0.4789 0.6479
vn 0.1439 -0.6807 -0.7183
vn 0.7353 -0.1945 0.6492
vn 0.9861 0.1467 -0.0785
vn -0.5635 -0.5178 -0.6437
vn 0.6760 0.2424 -0.6959
vn 0.0475 -0.4263 0.9033
vn -0.2225 -0.8451 -0.4861
vn 0.1622 -0.1636 -0.9731
vn 0.0751 0.2126 0.9742
vn -0.6318 -0.2860 -0.7204
vn -0.8096 -0.2732 0.5196
vn 0.9098 0.3953 0.1266
vn 0.9403 -0.2985 0.1636
vn -0.4083 -0.5435 0.7334
vn 0.4015 0.5122 0.7592
vn 0.0949 -0.6354 -0.7663
vn 0.5751 0.3853 -0.7217
vn 0.4073 -0.0463 -0.9121
vn 0.9068 0.2446 0.3435
vn -0.4986 -0.3983 -0.7699
vn -0.7481 -0.3109 0.5862
vn 0.4745 0.3340 0.8144
vn 0.5431 -0.1341 0.8289
vn 0.7564 0.2004 -0.6226
vn -0.2500 -0.7322 -0.6336
vn -0.1409 -0.4087 0.9017
vn -0.1559 0.0936 0.9833
vn 0.8351 -0.2041 -0.5108
vn -0.5727 -0.2026 -0.7943
vn -0.8196 -0.1494 0.5531
vn -0.0740 -0.2496 -0.9655
vn -0.6191 -0.2088 0.7571
vn 0.9278 -0.3316 0.1708
vn 0.9154 0.4026 -0.0019
vn 0.5032 0.6182 0.6039
vn -0.3473 -0.5761 0.7400
vn 0.5698 0.3534 -0.7420
vn 0.6597 0.5447 0.5178
vn 0.1361 -0.7554 -0.6409
vn 0.7528 -0.0494 0.6563
vn 0.9750 0.2180 -0.0432
vn -0.5620 -0.5883 -0.5815
vn -0.5625 -0.5921 -0.5770
vn -0.5620 -0.5879 -0.5818
vn 0.6486 0.1990 -0.7346
vn 0.7272 -0.4649 -0.5051
vn 0.0393 0.2476 0.9681
vn -0.8310 -0.3689 -0.4163
vn -0.7428 -0.1700 0.6476
vn -0.2499 -0.8465 -0.4700
vn 0.0793 -0.3791 0.9219
vn -0.9437 -0.2158 -0.2507
vn 0.1541 -0.6568 -0.7382
vn 0.9032 -0.3868 -0.1863
vn 0.9865 0.1561 0.0500
vn -0.9461 0.3106 -0.0921
vn 0.1054 0.4502 -0.8867
vn -0.8722 0.4037 -0.2762
vn 0.8887 -0.3434 0.3037
vn 0.1589 0.4820 -0.8617
vn 0.9369 0.2378 0.2561
vn -0.0716 0.5489 0.8328
vn -0.8967 0.3995 0.1904
vn -0.9875 -0.1530 -0.0384
vn 0.9460 -0.3070 0.1040
vn -0.1037 -0.4409 0.8916
vn 0.8507 -0.4295 0.3029
vn -0.9494 0.2876 -0.1264
vn -0.1869 -0.4963 0.8478
vn 0.1845 0.1740 -0.9673
vn -0.3453 0.0698 -0.9359
vn -0.2641 0.0041 0.9645
vn 0.5394 -0.0603 -0.8399
vn 0.9558 -0.1440 0.2565
vn -0.1601 0.0048 0.9871
vn -0.9372 -0.1208 0.3271
vn -0.4922 0.0810 -0.8667
vn 0.0562 0.8085 -0.5857
vn -0.2489 0.8157 0.5221
vn -0.7354 0.0429 -0.6762
vn 0.6537 0.1050 -0.7495
vn 0.6042 -0.2276 -0.7636
vn 0.1124 -0.3422 0.9329
vn 0.2704 -0.9499 0.1565
vn -0.8149 -0.5534 0.1723
vn -0.4293 -0.3017 -0.8513
vn 0.9220 0.1093 0.3715
vn 0.9267 0.2804 0.2502
vn 0.5911 -0.1491 -0.7927
vn -0.0883 -0.0669 -0.9938
vn -0.8076 -0.4851 -0.3354
vn 0.6227 0.2087 -0.7541
vn 0.6105 0.2679 -0.7453
vn 0.7949 0.6057 0.0368
vn -0.2730 0.6772 0.6833
vn -0.9623 0.2632 -0.0687
vn -0.3750 0.2409 0.8952
vn 0.7920 -0.3279 0.5151
vn 0.6916 0.7074 -0.1457
vn 0.2891 0.3254 -0.9003
vn 0.7345 0.6550 -0.1777
vn -0.6496 -0.3542 0.6727
vn 0.5850 0.4369 0.6833
vn -0.4950 -0.5393 -0.6813
vn 0.6746 0.2249 -0.7031
vn -0.7222 -0.4763 -0.5015
vn -0.7651 -0.0737 0.6397
vn -0.5409 -0.4811 -0.6899
vn -0.7438 -0.2801 0.6069
vn 0.4965 0.4077 0.7663
vn 0.7605 0.2491 -0.5996
vn -0.6278 -0.2994 -0.7185
vn -0.8544 -0.3979 0.3341
vn -0.6283 -0.3431 0.6982
vn 0.6516 0.4490 0.6115
vn -0.5627 -0.5923 -0.5766
vn 0.7478 0.1658 -0.6428
vn -0.6048 -0.5186 -0.6043
vn -0.7060 -0.0399 0.7070
vn 0.0753 -0.5708 -0.8176
vn -0.1490 0.6434 0.7509
s 1
f 1/1/1 2/2/1 3/3/1
f 4/4/2 5/5/2 1/1/2
f 6/6/3 7/7/3 8/8/3
f 9/9/4 4/4/4 10/10/4
f 11/11/5 6/6/5 10/10/5
f 1/1/6 12/12/6 13/13/6
f 7/7/7 12/14/7 3/15/7
f 11/11/8 14/16/8 7/7/8
f 11/11/9 15/17/9 16/18/9
f 4/4/10 13/13/10 15/17/10
f 2/2/11 17/19/11 8/20/11
f 18/21/12 5/5/12 9/22/12
f 18/23/13 9/9/13 10/10/13
f 18/23/14 6/6/14 17/24/14
f 8/8/15 17/24/15 6/6/15
f 8/20/16 3/3/16 2/2/16
f 2/2/17 18/21/17 17/19/17
f 19/25/18 20/26/18 21/27/18
f 22/28/19 16/18/19 15/17/19
f 22/28/20 14/16/20 16/18/20
f 23/29/21 24/30/21 14/16/21
f 20/26/22 25/31/22 21/27/22
f 20/26/23 15/17/23 13/13/23
f 24/32/24 13/13/24 12/12/24
f 14/16/25 24/30/25 12/14/25
f 10/10/26 4/4/26 11/11/26
f 8/8/27 7/7/27 3/15/27
f 25/33/28 24/30/28 23/29/28
f 26/34/29 22/28/30 19/25/29
f 23/29/31 14/16/31 22/28/31
f 23/29/32 22/28/32 26/34/32
f 19/25/33 22/28/33 15/17/33
f 27/35/34 28/36/34 29/37/34
f 30/38/35 31/39/36 32/40/37
f 27/41/38 33/42/38 32/43/38
f 34/44/39 32/43/39 33/42/39
f 31/39/40 27/45/40 32/40/40
f 31/46/41 35/47/41 28/36/41
f 36/48/42 35/47/42 37/49/42
f 38/50/43 39/51/43 40/52/43
f 41/53/44 42/54/44 43/55/44
f 44/56/45 45/57/45 42/54/45
f 42/54/46 46/58/46 47/59/46
f 48/60/47 49/61/47 50/62/47
f 51/63/48 52/64/48 53/65/48
f 52/64/49 49/61/49 53/65/49
f 54/66/50 44/56/50 55/67/50
f 39/51/51 34/44/51 33/42/51
f 56/68/52 33/42/52 29/69/52
f 38/50/53 35/47/53 34/44/53
f 36/48/54 57/70/54 28/36/54
f 34/44/55 58/71/55 30/38/55
f 29/37/56 57/70/56 56/72/56
f 59/73/57 23/74/57 60/75/57
f 19/76/58 21/77/58 45/57/58
f 19/76/29 61/78/59 26/79/29
f 25/80/60 59/73/60 62/81/60
f 55/67/61 44/56/61 63/82/61
f 55/67/62 63/82/62 64/83/62
f 65/84/63 66/85/63 67/86/63
f 68/87/64 56/88/64 46/58/64
f 43/55/65 63/82/65 41/53/65
f 56/68/66 40/52/66 39/51/66
f 48/60/67 65/84/67 67/86/67
f 55/67/68 64/83/68 66/85/68
f 56/89/69 69/90/69 46/91/69
f 54/66/70 70/92/70 71/93/70
f 70/92/71 48/60/71 50/62/71
f 60/75/72 26/79/72 61/78/72
f 41/53/73 44/56/73 42/54/73
f 21/94/74 25/80/74 72/95/74
f 52/64/75 50/62/75 49/61/75
f 70/92/76 65/84/76 48/60/76
f 71/93/77 44/56/77 54/66/77
f 38/50/78 73/96/78 37/49/78
f 38/50/79 74/97/79 73/96/79
f 40/52/80 74/97/80 38/50/80
f 45/57/81 71/93/81 19/76/81
f 61/78/82 71/93/82 70/92/82
f 50/62/83 61/78/83 70/92/83
f 52/64/84 60/75/84 50/62/84
f 59/73/85 52/64/85 69/90/85
f 62/81/86 59/73/86 69/90/86
f 57/98/87 69/90/87 56/89/87
f 75/99/88 57/70/88 36/48/88
f 73/96/89 36/48/89 37/49/89
f 45/57/90 21/77/90 68/87/90
f 65/84/91 70/92/91 54/66/91
f 44/56/92 71/93/92 45/57/92
f 69/90/93 52/64/93 46/91/93
f 47/100/94 46/91/94 51/63/94
f 66/85/95 54/66/95 55/67/95
f 63/82/96 44/56/96 41/53/96
f 42/54/97 45/57/97 68/87/97
f 54/66/98 66/85/98 65/84/98
f 46/91/99 52/64/99 51/63/99
f 72/95/100 25/80/100 76/101/100
f 68/87/101 21/77/101 72/102/101
f 62/81/102 76/101/102 25/80/102
f 72/102/103 74/103/103 68/87/103
f 73/104/104 72/95/104 76/101/104
f 62/81/105 73/104/105 76/101/105
f 62/81/106 69/90/106 75/105/106
f 75/105/107 69/90/107 57/98/107
f 68/87/108 74/103/108 40/106/108
f 28/36/109 57/70/109 29/37/109
f 68/87/110 40/106/110 56/88/110
f 77/107/111 78/108/111 79/109/111
f 80/110/112 81/111/112 82/112/112
f 80/110/113 82/113/113 83/114/113
f 83/114/114 78/108/114 80/110/114
f 78/108/115 84/115/115 81/111/115
f 85/116/116 83/117/116 82/118/116
f 51/119/117 86/120/117 87/121/117
f 79/109/118 83/114/118 86/122/118
f 81/111/119 85/116/119 82/118/119
f 53/123/120 79/109/120 86/122/120
f 86/122/121 51/124/121 53/123/121
f 84/115/122 87/121/122 85/116/122
f 87/121/123 83/117/123 85/116/123
f 78/108/124 81/111/124 80/110/124
f 81/111/125 84/115/125 85/116/125
f 51/119/126 87/121/126 63/125/126
f 66/126/127 79/109/127 53/123/127
f 64/127/128 87/121/128 77/107/128
f 64/127/129 79/109/129 66/126/129
f 88/128/130 89/129/130 90/130/130
f 89/129/131 91/131/131 90/132/131
f 92/133/132 93/134/132 91/131/132
f 88/128/133 92/133/133 89/129/133
f 91/131/134 94/135/134 90/136/134
f 88/137/135 90/136/135 94/135/135
f 42/138/136 47/139/136 95/140/136
f 47/141/137 51/142/137 96/143/137
f 94/135/138 97/144/138 95/140/138
f 97/144/139 92/133/139 98/145/139
f 98/145/140 88/128/140 96/143/140
f 98/145/141 96/143/141 51/142/141
f 95/140/142 88/137/142 94/135/142
f 91/131/143 93/134/143 94/135/143
f 92/133/144 91/131/144 89/129/144
f 98/145/145 51/142/145 63/146/145
f 95/140/146 47/139/146 96/147/146
f 43/148/147 95/140/147 97/144/147
f 98/145/148 43/148/148 97/144/148
f 53/149/149 99/150/149 66/151/149
f 100/152/150 101/153/150 102/154/150
f 103/155/151 104/156/151 105/157/151
f 103/155/152 105/158/152 106/159/152
f 106/159/153 101/153/153 103/155/153
f 101/153/154 107/160/154 104/156/154
f 108/161/155 106/162/155 105/163/155
f 102/154/156 106/159/156 109/164/156
f 104/156/157 108/161/157 105/163/157
f 49/165/158 102/154/158 109/164/158
f 109/164/159 53/166/159 49/165/159
f 108/161/160 100/152/161 99/150/162
f 109/167/163 108/161/163 99/150/163
f 109/167/164 99/150/164 53/149/164
f 48/168/165 102/154/165 49/165/165
f 66/151/166 100/152/166 67/169/166
f 67/169/167 102/154/167 48/168/167
f 104/156/168 107/160/168 108/161/168
f 101/153/169 104/156/169 103/155/169
f 110/170/170 111/171/170 112/172/170
f 112/172/171 113/173/171 114/174/171
f 114/174/172 113/173/172 115/175/172
f 113/173/173 116/176/173 115/175/173
f 110/170/174 117/177/174 111/171/174
f 118/178/175 119/179/175 120/180/175
f 120/180/176 119/179/176 121/181/176
f 122/182/177 123/183/177 118/178/177
f 122/182/178 118/178/178 120/180/178
f 124/184/179 125/185/179 126/186/179
f 125/185/180 127/187/180 126/186/180
f 128/188/181 129/189/181 127/187/181
f 127/187/182 129/189/182 130/190/182
f 124/184/183 126/186/183 131/191/183
f 132/192/184 133/193/184 134/194/184
f 133/193/185 135/195/185 134/194/185
f 136/196/186 132/192/186 137/197/186
f 136/196/187 133/193/187 132/192/187
f 1/1/188 5/5/188 2/2/188
f 4/4/189 9/9/189 5/5/189
f 11/11/190 7/7/190 6/6/190
f 1/1/191 3/3/191 12/12/191
f 7/7/192 14/16/192 12/14/192
f 11/11/193 16/18/193 14/16/193
f 11/11/194 4/4/194 15/17/194
f 4/4/195 1/1/195 13/13/195
f 18/21/196 2/2/196 5/5/196
f 18/23/197 10/10/197 6/6/197
f 19/25/198 15/17/198 20/26/198
f 20/26/199 24/32/199 25/31/199
f 24/32/200 20/26/200 13/13/200
f 27/35/201 31/46/201 28/36/201
f 30/38/35 58/71/202 31/39/36
f 27/41/203 29/69/203 33/42/203
f 34/44/204 30/38/204 32/43/204
f 31/46/205 58/71/205 35/47/205
f 36/48/206 28/36/206 35/47/206
f 42/54/207 68/87/207 46/58/207
f 39/51/208 38/50/208 34/44/208
f 56/68/209 39/51/209 33/42/209
f 38/50/210 37/49/210 35/47/210
f 34/44/211 35/47/211 58/71/211
f 59/73/212 25/80/212 23/74/212
f 60/75/213 23/74/213 26/79/213
f 61/78/214 19/76/214 71/93/214
f 50/62/215 60/75/215 61/78/215
f 52/64/216 59/73/216 60/75/216
f 73/96/217 75/99/217 36/48/217
f 73/104/218 74/198/218 72/95/218
f 62/81/219 75/105/219 73/104/219
f 77/107/220 84/115/220 78/108/220
f 79/109/221 78/108/221 83/114/221
f 84/115/222 77/107/222 87/121/222
f 87/121/223 86/120/223 83/117/223
f 64/127/224 63/125/224 87/121/224
f 64/127/225 77/107/225 79/109/225
f 94/135/226 93/134/226 97/144/226
f 97/144/227 93/134/227 92/133/227
f 98/145/228 92/133/228 88/128/228
f 95/140/229 96/147/229 88/137/229
f 43/148/230 42/138/230 95/140/230
f 98/145/231 63/146/231 43/148/231
f 100/152/232 107/160/232 101/153/232
f 102/154/233 101/153/233 106/159/233
f 108/161/160 107/160/234 100/152/161
f 109/167/235 106/162/235 108/161/235
f 66/151/236 99/150/236 100/152/236
f 67/169/237 100/152/237 102/154/237
f 112/172/238 111/171/238 113/173/238
f 125/185/239 128/188/239 127/187/239
