# Blender v2.78 (sub 0) OBJ File: ''
# www.blender.org
v -0.103752 0.277155 -0.046580
v -0.136040 0.278585 -0.026515
v -0.116243 0.310208 -0.026486
v -0.078437 0.311095 -0.020634
v -0.106616 0.324489 -0.009133
v -0.132269 0.239220 -0.020840
v -0.136934 0.269465 -0.009241
v -0.132287 0.239241 0.031427
v -0.136063 0.278610 0.037067
v -0.136945 0.269477 0.019800
v -0.116266 0.310234 0.037027
v -0.078456 0.311116 0.031201
v -0.106627 0.324501 0.019669
v -0.106127 0.272244 0.055659
v -0.094916 0.242783 -0.034770
v -0.126395 0.253467 -0.051927
v -0.053342 0.258173 -0.021160
v -0.085329 0.273937 -0.065199
v -0.059715 0.315648 -0.027300
v -0.120263 0.228991 -0.034817
v -0.120292 0.229024 0.045422
v -0.126436 0.253513 0.062507
v -0.085378 0.273994 0.075791
v -0.053421 0.253749 0.040858
v -0.059738 0.315675 0.037876
v -0.094944 0.242815 0.045381
v -0.129551 0.224753 0.023625
v -0.088377 0.176263 -0.027937
v -0.057749 0.196909 -0.039595
v -0.081138 0.241796 -0.071836
v -0.110648 0.167341 -0.027978
v -0.129538 0.224738 -0.013024
v -0.110642 0.167411 0.038610
v -0.048745 0.195641 0.043794
v -0.078290 0.242380 0.082099
v -0.088401 0.176290 0.038606
v -0.119897 0.163150 0.020509
v -0.080107 0.140287 -0.035399
v -0.047018 0.154791 -0.013122
v -0.061362 0.188106 -0.009748
v -0.107384 0.129359 -0.035449
v -0.119920 0.163089 -0.009885
v -0.114684 0.125627 0.022445
v -0.047031 0.154806 0.023838
v -0.061372 0.188118 0.020427
v -0.080103 0.140367 0.043421
v -0.074631 0.113749 -0.027689
v -0.048464 0.125222 -0.006814
v -0.096199 0.105115 -0.025595
v -0.116448 0.124487 -0.013343
v -0.088296 0.107882 0.031000
v -0.099427 0.131562 0.045970
v -0.048473 0.125231 0.015486
v -0.100491 0.101074 0.018432
v -0.100897 0.100728 -0.010281
v -0.079402 0.103069 -0.008904
v -0.080702 0.101856 -0.004670
v -0.066205 0.108628 -0.003711
v -0.073440 0.105457 -0.009483
v -0.080589 0.101952 0.003268
v -0.069876 0.115450 0.030733
v -0.066207 0.108631 0.002454
v -0.077217 0.103835 0.006743
v -0.072125 0.105926 0.006669
v -0.098398 0.275374 -0.065285
v -0.098444 0.275427 0.066636
v -0.074239 0.315582 0.033296
v -0.067517 0.188208 -0.039627
v -0.060399 0.190943 0.046822
v -0.028592 0.159724 0.010700
v -0.074220 0.315559 -0.022730
v -0.092855 0.240039 -0.071853
v -0.088459 0.238891 0.082667
v -0.028588 0.159719 0.000026
v -0.020939 0.163042 -0.001232
v -0.020459 0.162489 0.007180
v -0.042310 0.225527 -0.009863
v -0.037386 0.212341 0.022771
v -0.063198 0.337567 0.044144
v -0.046777 0.269408 -0.076941
v -0.030413 0.201314 -0.036463
v -0.030443 0.201347 0.044425
v -0.046834 0.269473 0.084836
v -0.063169 0.337534 -0.036530
v -0.023089 0.275104 -0.076935
v -0.039509 0.343262 0.042717
v -0.023146 0.275169 0.084776
v -0.006754 0.207043 0.044431
v -0.002853 0.282384 0.033812
v 0.045136 0.293908 0.003970
v -0.008893 0.307516 0.018873
v -0.008883 0.307503 -0.010982
v -0.002833 0.282359 -0.025898
v 0.003207 0.257226 -0.010958
v 0.003197 0.257239 0.018897
v -0.006725 0.207010 -0.036457
v -0.039498 0.343194 -0.036054
v -0.130011 0.313475 -0.004814
v -0.130014 0.313478 0.004339
v -0.133078 0.308944 0.009856
v -0.139646 0.295987 -0.004848
v -0.139362 0.298885 -0.010338
v -0.133070 0.308935 -0.010329
v -0.139649 0.295991 0.004381
v -0.139369 0.298894 0.009869
vt 0.4734 0.7819
vt 0.4892 0.7828
vt 0.4720 0.8257
vt 0.4556 0.8083
vt 0.4563 0.8448
vt 0.4985 0.7695
vt 0.5003 0.7778
vt 0.3809 0.7672
vt 0.3919 0.7832
vt 0.3828 0.7758
vt 0.4042 0.8266
vt 0.4266 0.8090
vt 0.4247 0.8448
vt 0.3994 0.7845
vt 0.5153 0.7667
vt 0.5172 0.7753
vt 0.4771 0.7667
vt 0.4854 0.7773
vt 0.4751 0.6122
vt 0.4931 0.6174
vt 0.4780 0.6316
vt 0.4899 0.7645
vt 0.3947 0.7602
vt 0.3942 0.7774
vt 0.4396 0.6199
vt 0.4540 0.6116
vt 0.4563 0.6325
vt 0.4082 0.7556
vt 0.5147 0.7601
vt 0.4863 0.7379
vt 0.4822 0.5896
vt 0.4929 0.6069
vt 0.4941 0.7346
vt 0.5005 0.7621
vt 0.3802 0.7606
vt 0.4011 0.7351
vt 0.4507 0.5914
vt 0.4390 0.6100
vt 0.4305 0.7367
vt 0.5129 0.7341
vt 0.4822 0.7170
vt 0.4663 0.7199
vt 0.4754 0.7388
vt 0.4923 0.7144
vt 0.5017 0.7334
vt 0.3787 0.7190
vt 0.3784 0.7347
vt 0.4477 0.7202
vt 0.4619 0.7389
vt 0.4187 0.7189
vt 0.5134 0.7184
vt 0.4806 0.7041
vt 0.4610 0.7083
vt 0.4917 0.7015
vt 0.5009 0.7149
vt 0.3999 0.7065
vt 0.4018 0.7178
vt 0.4457 0.7086
vt 0.5145 0.7057
vt 0.4998 0.7009
vt 0.4917 0.7015
vt 0.4998 0.7009
vt 0.4610 0.7083
vt 0.4806 0.7041
vt 0.5145 0.7057
vt 0.4206 0.7067
vt 0.4457 0.7086
vt 0.3798 0.7063
vt 0.3999 0.7065
vt 0.4206 0.7067
vt 0.4806 0.6369
vt 0.4974 0.6189
vt 0.5004 0.6231
vt 0.5076 0.6037
vt 0.4352 0.6230
vt 0.4543 0.6383
vt 0.4306 0.6241
vt 0.4261 0.6056
vt 0.4552 0.6369
vt 0.4845 0.5852
vt 0.4919 0.5788
vt 0.4753 0.5750
vt 0.4576 0.5723
vt 0.4467 0.5891
vt 0.4425 0.5779
vt 0.4631 0.5812
vt 0.4795 0.6356
vt 0.4965 0.6064
vt 0.4359 0.6096
vt 0.4667 0.5806
vt 0.4664 0.5827
vt 0.4643 0.5829
vt 0.4709 0.6007
vt 0.4596 0.5969
vt 0.1681 0.5759
vt 0.1327 0.5481
vt 0.1775 0.5705
vt 0.1004 0.5758
vt 0.0920 0.5696
vt 0.1002 0.6121
vt 0.0911 0.6177
vt 0.1332 0.6291
vt 0.1755 0.6201
vt 0.1332 0.6388
vt 0.1668 0.6132
vt 0.1325 0.5586
vt 0.1069 0.5806
vt 0.1602 0.5811
vt 0.1602 0.6083
vt 0.1330 0.6213
vt 0.1439 0.5984
vt 0.1343 0.5920
vt 0.1441 0.5884
vt 0.1343 0.5833
vt 0.1243 0.5881
vt 0.1241 0.5981
vt 0.1339 0.6032
vt 0.1064 0.6075
vt 0.1342 0.5676
vt 0.4563 0.8448
vt 0.4247 0.8448
vt 0.4042 0.8266
vt 0.5003 0.7778
vt 0.4892 0.7828
vt 0.4720 0.8257
vt 0.5172 0.7753
vt 0.3919 0.7832
vt 0.3828 0.7758
vt 0.3798 0.7063
vn -0.1613 0.2672 -0.9500
vn -0.4640 0.4256 -0.7769
vn -0.4921 0.3088 -0.8139
vn 0.1033 0.6370 -0.7639
vn 0.1031 0.6385 -0.7627
vn 0.0848 0.7458 -0.6608
vn -0.9775 -0.1188 -0.1744
vn -0.9877 -0.1329 -0.0825
vn -0.9913 -0.1299 -0.0232
vn -0.9878 -0.1328 0.0819
vn -0.9776 -0.1187 0.1738
vn -0.9913 -0.1298 0.0227
vn 0.1092 0.5918 0.7987
vn 0.1091 0.5926 0.7981
vn 0.0843 0.7463 0.6602
vn -0.4125 0.4204 0.8081
vn -0.0666 0.2884 0.9552
vn -0.4600 0.2890 0.8396
vn 0.4292 0.9032 -0.0002
vn 0.3511 -0.3562 -0.8659
vn 0.1104 -0.0040 -0.9939
vn 0.8372 0.0923 -0.5390
vn 0.8241 0.1365 -0.5497
vn 0.8135 0.0282 -0.5808
vn -0.8675 -0.2742 -0.4150
vn -0.9055 -0.3379 -0.2565
vn -0.8120 -0.4571 -0.3629
vn -0.9056 -0.3379 0.2564
vn -0.8677 -0.2744 0.4146
vn -0.8122 -0.4568 0.3627
vn 0.7778 0.1993 0.5961
vn 0.8093 0.1354 0.5716
vn 0.7640 0.1086 0.6360
vn 0.1558 0.0427 0.9869
vn 0.3570 -0.3413 0.8696
vn -0.9649 -0.2121 0.1551
vn 0.0085 -0.0097 -0.9999
vn 0.0522 -0.0981 -0.9938
vn 0.0545 -0.0967 -0.9938
vn 0.8343 0.1228 -0.5374
vn 0.8445 0.1541 -0.5130
vn -0.8798 -0.0990 -0.4650
vn -0.9605 -0.1836 -0.2090
vn -0.8654 -0.1457 0.4794
vn 0.8399 0.0986 0.5336
vn 0.8118 0.2043 0.5471
vn 0.0513 -0.0974 0.9939
vn 0.0128 -0.0441 0.9989
vn 0.0538 -0.0959 0.9939
vn -0.9538 -0.1935 0.2299
vn -0.0729 0.1865 -0.9798
vn -0.0093 0.0301 -0.9995
vn 0.4490 0.2793 -0.8488
vn -0.9121 -0.0290 -0.4090
vn -0.9780 -0.0706 -0.1965
vn -0.9607 -0.1228 0.2488
vn 0.4367 0.2461 0.8653
vn 0.4371 0.2473 0.8648
vn 0.4484 0.2800 0.8489
vn 0.0163 -0.0064 0.9998
vn 0.0049 0.1805 0.9836
vn 0.9185 0.3954 0.0002
vn 0.4546 -0.5507 -0.7001
vn 0.0813 -0.3016 -0.9500
vn 0.1049 -0.2574 -0.9606
vn 0.8401 -0.4660 -0.2777
vn 0.6282 -0.1347 -0.7663
vn 0.6050 -0.1943 -0.7721
vn -0.1770 -0.7663 -0.6177
vn -0.7479 -0.5239 -0.4077
vn -0.7471 -0.5153 -0.4199
vn -0.5673 -0.5468 0.6158
vn -0.0125 -0.7265 0.6871
vn -0.5843 -0.6118 0.5333
vn 0.5939 -0.1980 0.7798
vn 0.8609 -0.3571 0.3623
vn 0.5716 -0.2487 0.7819
vn 0.2526 -0.4005 0.8808
vn 0.2988 -0.4057 0.8638
vn 0.9988 -0.0488 0.0004
vn -0.8492 -0.5267 0.0384
vn -0.4276 -0.8482 0.3126
vn -0.8601 -0.5068 0.0585
vn -0.4480 -0.8838 -0.1351
vn 0.2532 -0.9174 -0.3069
vn 0.2274 -0.9726 -0.0475
vn 0.6325 -0.7664 -0.1123
vn 0.4727 -0.8568 -0.2063
vn 0.2243 -0.9725 0.0632
vn 0.4802 -0.5908 0.6484
vn 0.5993 -0.7919 0.1170
vn 0.3236 -0.9114 0.2542
vn 0.4500 -0.8708 0.1980
vn -0.7445 0.6426 -0.1813
vn -0.2198 0.7698 -0.5992
vn -0.6695 0.6966 -0.2580
vn -0.8988 -0.1691 -0.4044
vn -0.9101 -0.3464 -0.2275
vn -0.9195 -0.3165 -0.2331
vn -0.4674 0.7188 0.5146
vn -0.7502 0.6274 0.2087
vn -0.6862 0.6687 0.2864
vn -0.8108 -0.4307 0.3965
vn -0.8586 -0.2245 0.4609
vn -0.6600 -0.4586 0.5950
vn -0.1650 0.9863 -0.0005
vn -0.7270 0.6866 -0.0005
vn -0.4656 -0.3461 -0.8145
vn -0.4251 -0.1337 -0.8952
vn 0.2145 -0.9112 -0.3518
vn -0.4988 -0.8653 0.0493
vn 0.4533 -0.8861 -0.0964
vn -0.4226 -0.9034 0.0727
vn 0.1056 -0.9373 0.3322
vn 0.4438 -0.8926 0.0792
vn -0.2713 -0.4030 0.8740
vn -0.2210 -0.1203 0.9678
vn -0.2479 -0.9173 0.3116
vn 0.0444 0.7077 -0.7052
vn -0.3840 0.7459 -0.5442
vn -0.2110 0.7251 -0.6555
vn -0.6465 -0.0022 -0.7629
vn 0.0165 0.1891 -0.9818
vn 0.0770 -0.2774 -0.9577
vn -0.3870 0.7323 0.5603
vn -0.3255 0.7170 0.6164
vn -0.2114 0.7257 0.6548
vn -0.6360 -0.3829 0.6700
vn -0.4750 0.2091 0.8548
vn -0.0063 1.0000 -0.0004
vn -0.1582 0.9874 -0.0005
vn 0.3670 -0.4089 -0.8355
vn -0.3002 -0.8509 -0.4311
vn 0.4095 -0.4952 -0.7662
vn 0.2705 -0.6566 -0.7041
vn 0.4052 -0.4861 0.7743
vn 0.2279 -0.2648 0.9370
vn 0.4697 -0.6019 0.6458
vn 0.8294 0.1217 -0.5452
vn 0.7862 0.1876 -0.5888
vn 0.9464 0.3227 -0.0144
vn 0.9444 0.3277 -0.0260
vn 0.9466 0.3220 -0.0127
vn 0.8334 0.1139 0.5408
vn 0.8401 0.0992 0.5332
vn -0.9878 -0.1560 -0.0003
vn -0.9808 -0.1677 -0.0995
vn -0.9822 -0.1388 -0.1267
vn -0.9823 -0.1240 -0.1406
vn -0.9300 -0.3335 -0.1541
vn -0.9306 -0.3364 -0.1442
vn -0.9318 -0.3491 -0.0990
vn -0.9080 -0.3873 0.1601
vn -0.8967 -0.3774 0.2314
vn -0.9142 -0.3946 0.0928
vn -0.9807 -0.1080 0.1633
vn -0.9808 -0.1576 0.1145
vn -0.9795 -0.0913 0.1793
vn -0.8940 -0.4476 -0.0219
vn -0.8601 -0.5101 -0.0063
vn -0.9098 -0.4140 -0.0300
vn -0.1037 0.4926 -0.8640
vn 0.3808 0.5394 -0.7510
vn -0.1166 0.4858 -0.8663
vn 0.2728 0.9621 -0.0005
vn -0.2328 0.9725 -0.0008
vn -0.2338 0.9723 -0.0005
vn 0.3752 0.5443 0.7503
vn -0.0795 0.5076 0.8579
vn -0.1154 0.4890 0.8646
vn 0.1169 -0.4852 0.8666
vn 0.6219 -0.2832 0.7301
vn 0.1189 -0.4852 0.8663
vn 0.2338 -0.9723 0.0005
vn 0.7234 -0.6904 0.0005
vn 0.6220 -0.2843 -0.7296
vn 0.1172 -0.4865 -0.8658
vn 0.3474 0.5394 0.7670
vn 0.2442 0.9697 -0.0003
vn 0.3480 0.5388 -0.7672
vn 0.5551 -0.3224 -0.7668
vn 0.6583 -0.7527 0.0005
vn 0.5545 -0.3218 0.7674
vn 0.9293 0.0037 -0.3694
vn 0.6093 -0.2918 -0.7373
vn 0.4093 0.5401 -0.7354
vn 0.8170 0.4279 -0.3865
vn 0.7593 0.6508 -0.0003
vn 0.2763 0.9611 -0.0008
vn 0.8132 0.4327 0.3892
vn 0.4202 0.5475 0.7237
vn 0.9289 0.0041 0.3703
vn 0.6082 -0.2910 0.7385
vn 0.9810 -0.1942 0.0004
vn 0.7245 -0.6893 0.0005
vn -0.5559 0.6417 -0.5284
vn -0.4488 0.8646 -0.2258
vn -0.4460 0.8768 -0.1796
vn -0.4973 0.8556 0.1436
vn -0.5150 0.8373 0.1837
vn -0.6717 0.6326 0.3856
vn -0.6759 0.6263 0.3885
vn -0.9297 0.1241 -0.3467
vn -0.9957 -0.0901 -0.0227
vn -0.8754 0.2054 -0.4375
vn -0.5741 0.6065 -0.5501
vn -0.9937 -0.0854 -0.0722
vn -0.9969 -0.0788 0.0058
vn -0.9327 0.2254 0.2815
vn -0.9349 0.2205 0.2781
vn -0.9951 -0.0647 0.0748
vn -0.8634 0.5018 -0.0530
vn -0.8755 0.4823 -0.0304
vn -0.8755 0.4823 0.0293
vn 0.1154 0.5475 -0.8288
vn -0.9625 -0.1268 -0.2399
vn -0.9626 -0.1266 0.2394
vn 0.1244 0.4635 0.8773
vn 0.2755 -0.5035 -0.8189
vn 0.2749 -0.5028 0.8195
vn -0.9879 -0.0814 -0.1322
vn -0.8145 -0.1391 0.5633
vn 0.4259 0.2161 0.8786
vn 0.0328 0.2108 0.9770
vn -0.0062 1.0000 -0.0004
vn 0.3848 -0.4273 0.8181
vn 0.9433 0.3304 -0.0322
vn -0.9789 -0.1881 -0.0799
vn -0.9285 -0.3273 -0.1752
vn -0.8893 -0.3719 0.2662
vn -0.9793 -0.1808 0.0912
vn -0.8454 -0.5341 -0.0001
vn 0.8163 0.4271 -0.3889
vn 0.7595 0.6505 0.0000
vn 0.8111 0.4304 0.3962
vn 0.9289 0.0038 0.3704
vn -0.8663 0.4869 0.1111
vn -0.8634 0.5018 0.0521
vn -0.8250 0.5163 0.2299
vn -0.8249 0.5161 -0.2308
vn -0.8663 0.4869 -0.1120
s 1
f 1/1/1 2/2/2 3/3/3
f 4/4/4 3/3/5 5/5/6
f 2/2/7 6/6/8 7/7/9
f 8/8/10 9/9/11 10/10/12
f 11/11/13 12/12/14 13/13/15
f 9/9/16 14/14/17 11/11/18
f 13/13/19 4/4/19 5/5/19
f 7/7/9 8/15/10 10/16/12
f 15/17/20 16/18/21 1/1/1
f 17/19/22 18/20/23 19/21/24
f 20/22/25 6/6/26 16/18/27
f 8/8/28 21/23/29 22/24/30
f 23/25/31 24/26/32 25/27/33
f 22/24/34 26/28/35 14/14/17
f 6/6/26 27/29/36 8/15/28
f 28/30/37 20/22/38 15/17/39
f 17/19/22 29/31/40 30/32/41
f 31/33/42 32/34/43 20/22/25
f 27/35/36 33/36/44 21/23/29
f 34/37/45 24/26/32 35/38/46
f 21/23/47 36/39/48 26/28/49
f 32/34/43 37/40/50 27/29/36
f 38/41/51 31/33/52 28/30/37
f 39/42/53 28/30/53 40/43/53
f 41/44/54 42/45/55 31/33/42
f 43/46/56 33/36/44 37/47/50
f 36/39/57 44/48/58 45/49/59
f 33/36/60 46/50/61 36/39/48
f 44/48/62 40/43/62 45/49/62
f 42/45/55 43/51/56 37/40/50
f 47/52/63 41/44/64 38/41/65
f 48/53/66 38/41/67 39/42/68
f 49/54/69 50/55/70 41/44/71
f 43/46/72 51/56/73 52/57/74
f 46/50/75 53/58/76 44/48/77
f 51/56/73 46/50/78 52/57/79
f 53/58/76 39/42/80 44/48/80
f 50/55/81 54/59/82 43/51/83
f 55/60/84 56/61/85 57/62/86
f 47/52/63 58/63/87 59/64/88
f 55/60/84 60/65/89 54/59/82
f 61/66/90 62/67/91 53/58/76
f 54/68/82 63/69/92 51/56/73
f 48/53/66 62/67/91 58/63/87
f 47/52/63 56/61/85 49/54/69
f 58/63/87 64/70/93 59/64/88
f 61/66/90 63/69/92 64/70/93
f 4/71/94 65/72/95 1/73/96
f 65/72/97 15/74/98 1/73/99
f 66/75/100 12/76/101 14/77/102
f 26/78/103 66/75/104 14/77/105
f 67/79/106 4/71/107 12/76/107
f 15/74/98 68/80/108 28/81/109
f 68/80/110 40/82/111 28/81/112
f 45/83/113 69/84/114 36/85/115
f 69/84/116 26/78/103 36/85/117
f 40/82/111 70/86/118 45/83/113
f 18/20/119 71/87/120 19/21/121
f 72/88/122 18/20/123 30/32/124
f 67/79/125 23/25/126 25/27/127
f 73/89/128 23/25/129 66/75/104
f 67/79/106 19/21/130 71/87/131
f 68/80/108 30/32/124 29/31/132
f 74/90/133 29/31/134 75/91/135
f 70/86/118 34/37/136 69/84/114
f 69/84/116 35/38/137 73/89/128
f 74/90/133 76/92/138 70/86/118
f 77/93/139 75/91/140 29/31/40
f 78/94/141 75/91/142 77/93/143
f 34/37/45 76/92/144 78/94/145
f 79/95/146 19/96/146 25/97/146
f 19/96/147 80/98/148 17/99/149
f 17/99/150 81/100/151 77/101/152
f 82/102/153 24/103/154 78/104/155
f 83/105/156 25/97/157 24/103/158
f 81/100/159 78/104/160 77/101/161
f 84/106/162 85/107/163 80/98/164
f 86/108/165 84/106/166 79/95/167
f 87/109/168 79/95/169 83/105/170
f 82/102/171 87/109/172 83/105/173
f 81/100/174 88/110/175 82/102/174
f 85/107/176 81/100/177 80/98/177
f 89/111/178 90/112/178 91/113/178
f 91/113/179 90/112/179 92/114/179
f 92/114/180 90/112/180 93/115/180
f 93/115/181 90/112/181 94/116/181
f 94/116/182 90/112/182 95/117/182
f 95/117/183 90/112/183 89/111/183
f 85/107/176 94/116/184 96/118/185
f 97/119/186 93/115/187 85/107/163
f 86/108/165 92/114/188 97/119/189
f 89/111/190 86/108/191 87/109/168
f 95/117/192 87/109/172 88/110/193
f 94/116/194 88/110/175 96/118/195
f 3/3/196 98/120/197 5/5/198
f 5/5/198 99/121/199 13/13/200
f 13/13/200 100/122/201 11/11/202
f 2/2/203 101/123/204 102/124/205
f 3/3/196 102/124/205 103/125/206
f 7/7/207 104/126/208 101/123/204
f 11/11/202 105/127/209 9/9/210
f 10/10/211 105/127/209 104/128/208
f 104/128/212 99/121/213 98/120/214
f 1/1/1 16/18/21 2/2/2
f 4/4/4 1/1/215 3/3/5
f 2/2/7 16/18/216 6/6/8
f 8/8/10 22/24/217 9/9/11
f 11/11/13 14/14/218 12/12/14
f 9/9/16 22/24/34 14/14/17
f 13/13/19 12/12/19 4/4/19
f 7/7/9 6/6/8 8/15/10
f 15/17/20 20/22/219 16/18/21
f 17/19/22 30/32/41 18/20/23
f 20/22/25 32/34/43 6/6/26
f 8/8/28 27/35/36 21/23/29
f 23/25/31 35/38/46 24/26/32
f 22/24/34 21/23/220 26/28/35
f 6/6/26 32/34/43 27/29/36
f 28/30/37 31/33/52 20/22/38
f 17/19/22 77/93/139 29/31/40
f 31/33/42 42/45/55 32/34/43
f 27/35/36 37/47/50 33/36/44
f 34/37/45 78/94/145 24/26/32
f 21/23/47 33/36/60 36/39/48
f 32/34/43 42/45/55 37/40/50
f 38/41/51 41/44/51 31/33/52
f 39/42/53 38/41/53 28/30/53
f 41/44/54 50/55/221 42/45/55
f 43/46/56 52/57/222 33/36/44
f 36/39/57 46/50/223 44/48/58
f 33/36/60 52/57/224 46/50/61
f 44/48/62 39/42/62 40/43/62
f 42/45/55 50/55/221 43/51/56
f 47/52/63 49/54/69 41/44/64
f 48/53/66 47/52/63 38/41/67
f 49/54/69 55/60/84 50/55/70
f 43/46/72 54/68/82 51/56/73
f 46/50/75 61/66/90 53/58/76
f 51/56/73 61/66/90 46/50/78
f 53/58/76 48/53/66 39/42/80
f 50/55/81 55/60/84 54/59/82
f 55/60/84 49/54/69 56/61/85
f 47/52/63 48/53/66 58/63/87
f 55/60/84 57/62/86 60/65/89
f 61/66/90 64/70/93 62/67/91
f 54/68/82 60/129/89 63/69/92
f 48/53/66 53/58/76 62/67/91
f 47/52/63 59/64/88 56/61/85
f 60/129/89 57/62/86 64/70/93
f 56/61/85 59/64/88 57/62/86
f 58/63/87 62/67/91 64/70/93
f 64/70/93 63/69/92 60/129/89
f 57/62/86 59/64/88 64/70/93
f 61/66/90 51/56/73 63/69/92
f 4/71/94 71/87/120 65/72/95
f 65/72/97 72/88/122 15/74/98
f 66/75/100 67/79/125 12/76/101
f 26/78/103 73/89/128 66/75/104
f 67/79/106 71/87/131 4/71/107
f 15/74/98 72/88/122 68/80/108
f 68/80/110 74/90/133 40/82/111
f 45/83/113 70/86/118 69/84/114
f 69/84/116 73/89/128 26/78/103
f 40/82/111 74/90/133 70/86/118
f 18/20/119 65/72/95 71/87/120
f 72/88/122 65/72/97 18/20/123
f 67/79/125 66/75/100 23/25/126
f 73/89/128 35/38/137 23/25/129
f 67/79/106 25/27/225 19/21/130
f 68/80/108 72/88/122 30/32/124
f 74/90/133 68/80/110 29/31/134
f 70/86/118 76/92/138 34/37/136
f 69/84/116 34/37/226 35/38/137
f 74/90/133 75/91/135 76/92/138
f 78/94/141 76/92/227 75/91/142
f 79/95/146 84/106/146 19/96/146
f 19/96/147 84/106/228 80/98/148
f 17/99/150 80/98/229 81/100/151
f 82/102/153 83/105/230 24/103/154
f 83/105/156 79/95/231 25/97/157
f 81/100/159 82/102/232 78/104/160
f 84/106/162 97/119/186 85/107/163
f 86/108/165 97/119/189 84/106/166
f 87/109/168 86/108/191 79/95/169
f 82/102/171 88/110/193 87/109/172
f 81/100/174 96/118/195 88/110/175
f 85/107/176 96/118/185 81/100/177
f 85/107/176 93/115/184 94/116/184
f 97/119/186 92/114/233 93/115/187
f 86/108/165 91/113/234 92/114/188
f 89/111/190 91/113/235 86/108/191
f 95/117/192 89/111/236 87/109/172
f 94/116/194 95/117/194 88/110/175
f 3/3/196 103/125/206 98/120/197
f 5/5/198 98/120/197 99/121/199
f 13/13/200 99/121/199 100/122/201
f 2/2/203 7/7/207 101/123/204
f 3/3/196 2/2/203 102/124/205
f 7/7/207 10/16/211 104/126/208
f 11/11/202 100/122/201 105/127/209
f 10/10/211 9/9/210 105/127/209
f 98/120/214 103/125/237 101/123/238
f 102/124/239 101/123/238 103/125/237
f 104/128/212 105/127/240 100/122/241
f 100/122/241 99/121/213 104/128/212
f 98/120/214 101/123/238 104/128/212
